HIERARCHY
ROOT Hips
{
	OFFSET 0.00000 0.00000 0.00000
	CHANNELS 6 Xposition Yposition Zposition Yrotation Zrotation Xrotation 
	JOINT Lumbar
	{
		OFFSET 0 0 0
		CHANNELS 3 Zrotation Xrotation Yrotation
		JOINT Neck
		{
			OFFSET 0.00 0.2701 0.00
			CHANNELS 3 Zrotation Xrotation Yrotation
			End Site
			{
				OFFSET 0.00 0.1379 0.00
			}
		}
		JOINT RightShoulder
		{
			OFFSET 0.0119 0.2289 0.1181
			CHANNELS 3 Zrotation Xrotation Yrotation
			JOINT RightElbow
			{
				OFFSET 0.00 -0.1475 0.00
				CHANNELS 2 Zrotation Yrotation
				JOINT RightWrist
				{
					OFFSET 0.00 -0.1605 0.00
					CHANNELS 2 Zrotation Xrotation
					End Site
					{
						OFFSET 0.0040 -0.1068 0.0006
					}
				}
			}
		}
		JOINT LeftShoulder
		{
			OFFSET 0.0119 0.2289 -0.1181
			CHANNELS 3 Zrotation Xrotation Yrotation
			JOINT LeftElbow
			{
				OFFSET 0.00 -0.1475 0.00
				CHANNELS 2 Zrotation Yrotation
				JOINT LeftWrist
				{
					OFFSET 0.00 -0.1605 0.00
					CHANNELS 2 Zrotation Xrotation
					End Site
					{
						OFFSET 0.0040 -0.1068 -0.0006
					}
				}
			}
		}
	}
	JOINT RightHip
	{
		OFFSET 0.0316 -0.0424 0.0458
		CHANNELS 3 Zrotation Xrotation Yrotation
		JOINT RightKnee
		{
			OFFSET 0.00 -0.2438 0.00
			CHANNELS 1 Zrotation
			JOINT RightAnkle
			{
				OFFSET 0.00 -0.2449 0.00
				CHANNELS 3 Zrotation Xrotation Yrotation
				End Site
				{
					OFFSET 0.1237 -0.0542 0.0051
				}
			}
		}
	}
	JOINT LeftHip
	{
		OFFSET 0.0316 -0.0424 -0.0458
		CHANNELS 3 Zrotation Xrotation Yrotation
		JOINT LeftKnee
		{
			OFFSET 0.00 -0.2438 0.00
			CHANNELS 1 Zrotation
			JOINT LeftAnkle
			{
				OFFSET 0.00 -0.2449 0.00
				CHANNELS 3 Zrotation Xrotation Yrotation
				End Site
				{
					OFFSET 0.1237 -0.0542 -0.0051
				}
			}
		}
	}
}
MOTION
Frames: 19
Frame Time: 0.02
0.41695 0.07473 -0.15911 384.25485 -25.94364 -11.82163 41.68781 1.75906 -20.07245 9.27726 0.73614 -0.83079 -6.12214 -72.25192 -24.36518 34.42238 77.25557 10.65192 -4.7176 0.68441 4.36544 -62.43675 98.95676 -92.08149 25.00484 1.27183 50.5444 1.07808 -13.85091 -28.0857 -6.41155 -1.4555 -1.3576 26.39735 13.32316 -6.11183 -42.47535 -8.50722 3.62093 2.62432
0.42365 0.07707 -0.16031 384.75878 -25.75714 -11.90789 41.38421 1.95926 -19.73648 9.26797 0.33877 -0.83079 -5.88193 -72.32586 -24.27862 34.2782 77.53933 10.37558 -4.65387 0.4201 4.57999 -62.44744 99.17926 -92.79438 25.08219 1.31712 48.83334 1.543 -13.72641 -26.8931 -6.36044 -1.53235 -1.3972 28.98582 13.02725 -6.02405 -46.72505 -8.51083 3.82559 2.74005
0.42968 0.07914 -0.16156 385.32505 -25.63 -11.89935 41.04263 2.10232 -19.33245 9.27141 -0.16148 -0.83079 -5.5641 -72.52165 -24.04816 34.0881 78.00756 9.90343 -4.54469 0.10462 4.78944 -62.46786 99.36406 -93.67903 25.23115 1.43261 47.29168 1.96725 -13.17579 -25.72068 -6.30932 -1.65269 -1.45973 31.70217 12.49709 -5.84284 -50.50488 -8.40866 4.09134 2.88523
0.43599 0.08132 -0.1628 385.85925 -25.48081 -11.93001 40.72351 2.2689 -18.95162 9.26811 -0.62344 -0.83079 -5.29737 -72.66638 -23.88289 33.92563 78.38012 9.53144 -4.45768 -0.17787 4.99591 -62.49007 99.56178 -94.45921 25.34033 1.51055 45.67643 2.40385 -12.82446 -24.53241 -6.25952 -1.75142 -1.51097 34.35228 12.08224 -5.66283 -54.40251 -8.3548 4.32141 3.01246
0.44236 0.08355 -0.16398 386.40975 -25.30986 -11.97586 40.38119 2.44615 -18.60111 9.26794 -1.05283 -0.83079 -4.96987 -72.79489 -23.72409 33.73593 78.79527 9.11695 -4.36853 -0.50071 5.22523 -62.48738 99.77913 -95.34891 25.48153 1.61008 44.03773 2.86723 -12.44894 -23.35649 -6.20392 -1.85633 -1.56504 37.06445 11.63036 -5.64149 -58.75173 -8.3005 4.5837 3.15827
0.44845 0.08562 -0.1653 386.94163 -25.19898 -11.96869 40.07864 2.58769 -18.17311 9.26521 -1.57316 -0.83079 -4.74797 -72.98558 -23.51679 33.59143 79.1687 8.74237 -4.27189 -0.75273 5.40451 -62.53747 99.94546 -96.0525 25.57385 1.68251 42.49129 3.26534 -12.02205 -22.16469 -6.16026 -1.96087 -1.61981 39.66578 11.19686 -5.28021 -62.02396 -8.22253 4.79419 3.27288
0.45397 0.08739 -0.16695 387.39798 -25.23611 -11.83028 39.89535 2.64188 -17.53635 9.24533 -2.32075 -0.83079 -4.83905 -73.31551 -23.1935 33.5844 79.37643 8.52966 -4.16003 -0.78686 5.46008 -62.74194 99.98608 -96.19413 25.49654 1.65901 41.162 3.48722 -11.56025 -20.93657 -6.15044 -2.04382 -1.6658 41.94541 10.90946 -3.91792 -62.51863 -8.09535 4.84242 3.29097
0.45923 0.089 -0.16874 387.83495 -25.3324 -11.64354 39.7536 2.66251 -16.82645 9.22407 -3.15543 -0.83079 -5.03753 -73.70397 -22.82778 33.62394 79.53702 8.36257 -4.04274 -0.7497 5.46334 -62.99713 99.97549 -96.14371 25.37025 1.60698 39.92022 3.64593 -11.05712 -19.69163 -6.15112 -2.13311 -1.71604 44.1025 10.6428 -2.2329 -61.92576 -7.94936 4.83723 3.27723
0.4646 0.09067 -0.17048 388.28638 -25.4038 -11.48402 39.59281 2.70025 -16.15744 9.20766 -3.94926 -0.83079 -5.18483 -74.06709 -22.49285 33.64116 79.72469 8.17145 -3.93074 -0.75166 5.48165 -63.22179 99.98412 -96.18556 25.27725 1.57067 38.63743 3.83702 -10.57642 -18.44892 -6.1483 -2.21787 -1.76338 46.30154 10.34114 -0.75365 -61.77049 -7.81844 4.8595 3.28024
0.46996 0.09242 -0.17214 388.716 -25.4686 -11.29823 39.43109 2.72828 -15.45291 9.17263 -4.75304 -0.83079 -5.34072 -74.42926 -22.10779 33.662 79.89801 7.98737 -3.80461 -0.72724 5.53555 -63.47825 100.00807 -96.21294 25.14054 1.52452 37.36622 4.01044 -10.08192 -17.2304 -6.14594 -2.2849 -1.80169 48.56312 10.13592 0.97506 -61.83466 -7.65729 4.87077 3.27483
0.47529 0.09395 -0.17402 389.18577 -25.56071 -11.15789 39.28198 2.76915 -14.80691 9.17741 -5.55424 -0.83079 -5.50376 -74.80562 -21.81474 33.68656 80.08363 7.80216 -3.70809 -0.73988 5.5043 -63.68057 99.98907 -96.22184 25.0819 1.49198 36.08874 4.20715 -9.59123 -15.95612 -6.13778 -2.42265 -1.87699 50.66407 9.74196 2.26391 -61.19453 -7.55481 4.89107 3.27872
0.48058 0.09496 -0.17643 389.76929 -25.71116 -11.14728 39.15559 2.85533 -14.33194 9.27936 -6.33629 -0.83079 -5.67291 -75.20672 -21.82315 33.71384 80.35011 7.6022 -3.68655 -0.87478 5.23894 -63.71899 99.85856 -96.23256 25.25433 1.49643 34.77966 4.47559 -9.30802 -14.54524 -6.17606 -2.46183 -1.89801 52.34466 8.78796 2.22122 -58.83419 -7.63051 4.95266 3.31879
0.48584 0.09576 -0.17906 390.39364 -25.88719 -11.1861 39.04121 2.95556 -13.92017 9.42364 -7.11035 -0.83079 -5.84353 -75.61916 -21.92009 33.743 80.62421 7.40059 -3.69631 -1.04878 4.89178 -63.7013 99.68783 -96.22943 25.50627 1.51629 33.45983 4.77138 -9.00298 -13.07811 -6.1975 -2.61852 -1.98089 53.86794 7.65116 1.73135 -55.81426 -7.76469 5.02439 3.36877
0.49113 0.09664 -0.18162 391.00053 -26.053 -11.20759 38.92255 3.04861 -13.4856 9.55725 -7.88156 -0.83079 -6.00566 -76.02631 -21.95207 33.76871 80.8693 7.20107 -3.69776 -1.20291 4.59001 -63.71082 99.53924 -96.22786 25.71879 1.53409 32.1385 5.0601 -8.58036 -11.62571 -6.18216 -2.92281 -2.14251 55.46746 6.62099 1.47058 -53.12358 -7.86454 5.08882 3.41215
0.49635 0.09757 -0.18407 391.60325 -26.21522 -11.20515 38.79952 3.14391 -13.02411 9.65531 -8.68367 -0.83079 -6.20471 -76.43753 -22.08408 33.806 81.21611 6.99745 -3.67566 -1.36322 4.25233 -63.71574 99.37241 -96.23944 25.94237 1.53136 30.84426 5.32388 -8.67106 -10.21105 -6.34871 -2.41081 -1.87016 57.04445 5.4905 1.11175 -50.26315 -7.99473 5.16218 3.46281
0.50171 0.09834 -0.18679 392.22324 -26.38994 -11.26556 38.68895 3.2382 -12.6338 9.83666 -9.41783 -0.83079 -6.32557 -76.84046 -22.03283 33.82024 81.35922 6.80131 -3.70805 -1.52116 3.96995 -63.71518 99.23485 -96.22313 26.16385 1.57378 29.49366 5.64706 -7.71716 -8.71392 -6.13989 -3.58661 -2.49501 58.63043 4.52711 0.84692 -47.62264 -8.07798 5.22082 3.50166
0.50747 0.09872 -0.19017 392.89255 -26.59524 -11.48219 38.60145 3.32687 -12.43245 10.24448 -9.97026 -0.83079 -6.23226 -77.23186 -21.42493 33.75982 80.88751 6.62769 -3.90163 -1.65997 3.86716 -63.72238 99.18681 -96.13148 26.34781 1.75149 27.95702 6.1262 -3.63263 -6.92327 -4.83261 -9.74207 -5.76639 60.2962 4.05519 0.94844 -45.68113 -7.9997 5.22969 3.50042
0.51339 0.09893 -0.19382 393.57572 -26.81166 -11.76132 38.52785 3.41378 -12.2993 10.73326 -10.4533 -0.83079 -6.05959 -77.61142 -20.63557 33.678 80.21959 6.46153 -4.14577 -1.7954 3.82197 -63.72423 99.16997 -96.01379 26.52923 1.9717 26.36964 6.66441 1.45633 -5.06629 -3.16011 -17.52825 -9.9047 61.97241 3.76053 1.15919 -44.00195 -7.87572 5.22477 3.48798
0.51925 0.09921 -0.19738 394.24509 -27.02098 -12.01588 38.45269 3.50168 -12.13035 11.18062 -10.9652 -0.83079 -5.92097 -77.98701 -19.948 33.61248 79.67554 6.29035 -4.35446 -1.93542 3.74596 -63.72197 99.14005 -95.9097 26.72037 2.16297 24.82682 7.17726 5.91888 -3.29218 -1.69853 -24.33822 -13.52456 63.63565 3.39418 1.31956 -42.25422 -7.7841 5.2309 3.48419
